<svg id="Page-1" xmlns="http://www.w3.org/2000/svg" width="151.484" height="17.25" viewBox="0 0 151.484 17.25">
  <g id="Home-01">
    <g id="Logos">
      <g id="Combined-Shape" transform="translate(0 0)">
        <path id="Path_617" data-name="Path 617" d="M985.947,10a8.721,8.721,0,0,1,7.154,3.773l.588.882-1.814,1.225L991.287,15a6.42,6.42,0,1,0,0,7.253l.588-.882,1.814,1.225-.588.882A8.634,8.634,0,1,1,985.947,10Zm58.9,0a8.625,8.625,0,1,1-8.625,8.625A8.635,8.635,0,0,1,1044.846,10Zm13.282.392,5.146,6.273,5.146-6.273h2.789l-6.555,7.988,6.957,8.478h-2.846l-5.491-6.714-5.534,6.714h-2.846l6.958-8.478-6.555-7.988Zm-88.6,0a4.656,4.656,0,1,1,0,9.311h-.98l5.685,7.155h-2.793L965.756,19.7h-2.793v7.155h-2.156V10.392Zm30.629,0v7.449h10V10.392h2.207V26.858h-2.207V20.046h-10v6.812H998V10.392Zm-44.693,0V26.858h-2.156V10.392Zm71.891,0a4.679,4.679,0,0,1,4.653,4.655,4.805,4.805,0,0,1-1.567,3.479,4.649,4.649,0,0,1-2.84,8.331h-9.851V10.392Zm-83.75,0a4.653,4.653,0,0,1,3.088,8.135,4.648,4.648,0,0,1-2.843,8.331H934V10.392Zm101.24,1.813a6.42,6.42,0,1,0,6.469,6.42A6.46,6.46,0,0,0,1044.846,12.205ZM1027.6,19.7h-7.645v4.95h7.645a2.427,2.427,0,0,0,2.452-2.45,2.469,2.469,0,0,0-2.452-2.5Zm-83.752,0h-7.645v4.95h7.645A2.427,2.427,0,0,0,946.3,22.2a2.468,2.468,0,0,0-2.451-2.5Zm136.243-6.469,5.391,5.391-5.391,5.391-5.391-5.391ZM969.529,12.6h-6.567v4.95h6.567a2.468,2.468,0,0,0,2.451-2.5,2.427,2.427,0,0,0-2.451-2.45Zm57.826,0h-7.4v4.95h7.4a2.5,2.5,0,0,0,2.454-2.5,2.46,2.46,0,0,0-2.454-2.45Zm-83.75,0h-7.4v4.95h7.4a2.468,2.468,0,0,0,2.449-2.5,2.426,2.426,0,0,0-2.449-2.45Z" transform="translate(-934 -10)" fill-rule="evenodd"/>
      </g>
    </g>
  </g>
</svg>
