<svg id="Page-1" xmlns="http://www.w3.org/2000/svg" width="140.427" height="25.875" viewBox="0 0 140.427 25.875">
  <g id="Home-01">
    <g id="Logos">
      <g id="Combined-Shape" transform="translate(0 0)">
        <path id="Path_618" data-name="Path 618" d="M518.275,12.5a4.407,4.407,0,0,1,4.031,2.07h.109V12.937h5.011V25.9a6.909,6.909,0,0,1-2.07,5.338,7.869,7.869,0,0,1-5.284,1.634c-4.031.054-6.808-1.58-7.3-4.9h5.067a2.022,2.022,0,0,0,2.123,1.253c1.689,0,2.289-1.035,2.289-2.615V25.52h-.109a4.475,4.475,0,0,1-3.6,1.688c-3.214,0-6.046-2.4-6.046-7.081C512.5,15.824,514.789,12.5,518.275,12.5Zm-98.43.109c4.739,0,7.735,3.214,7.735,7.9,0,4.739-3,7.9-7.735,7.9s-7.788-3.159-7.788-7.9S415.107,12.611,419.845,12.611Zm16.124,0c4.738,0,7.681,3.159,7.681,7.9s-3,7.9-7.735,7.9c-4.685,0-7.735-3.159-7.735-7.9S431.23,12.611,435.97,12.611ZM474.861,7v7.517h.109A4.959,4.959,0,0,1,479.22,12.5c3.758,0,5.937,3.377,5.937,7.9,0,5.066-2.343,8.007-6.265,8.007a4.613,4.613,0,0,1-4.195-2.451h-.053v1.961h-5.013V7Zm18.466,5.556a7.2,7.2,0,0,1,5.228,1.961c1.744,1.689,2.507,4.3,2.452,7.354H490.984c.219,1.852,1.09,2.833,2.669,2.833a2.042,2.042,0,0,0,2.07-1.416h5.066c-.871,3.432-3.541,5.12-7.3,5.12-4.629-.054-7.734-3.214-7.734-7.953C485.756,15.77,488.861,12.556,493.328,12.556ZM410.967,7V27.971h-5.394V7Zm100.389,5.665a1.632,1.632,0,0,1,.873.163V17.4h-.109c-3.1-.545-4.9.926-4.9,4.3v6.264h-5.283V12.992h5.011v2.56h.109C508.144,13.482,509.56,12.665,511.357,12.665ZM397.3,7a7.318,7.318,0,0,1,4.521,1.307,5.139,5.139,0,0,1,1.851,4.14,4,4,0,0,1-2.451,4.031v.109a5.028,5.028,0,0,1,3.431,5.011,6.157,6.157,0,0,1-2.287,5.066,7.83,7.83,0,0,1-4.794,1.253H387V7Zm65.855,5.556c3.486,0,4.956,2.56,4.956,5.992v9.369h-5.228V19.474c0-1.525-.49-2.506-1.8-2.506s-1.961,1.2-1.961,2.832v8.116h-5.23V19.474c0-1.525-.49-2.506-1.8-2.506s-1.961,1.2-1.961,2.832v8.116h-5.394V12.992h5.013v2.233h.108a4.749,4.749,0,0,1,4.521-2.669,4.135,4.135,0,0,1,4.031,2.56h.109A4.962,4.962,0,0,1,463.15,12.556Zm-43.413,3.7c-1.634,0-2.4,1.634-2.4,4.249s.763,4.3,2.4,4.3c1.633-.054,2.451-1.688,2.451-4.3S421.371,16.26,419.738,16.26Zm16.123,0c-1.634,0-2.4,1.634-2.4,4.249s.762,4.3,2.4,4.3c1.634-.054,2.451-1.688,2.451-4.3S437.5,16.26,435.861,16.26Zm41.452.109c-1.634,0-2.615,1.58-2.615,3.976s1.035,3.976,2.615,3.976,2.451-1.525,2.451-3.976C479.763,17.949,478.892,16.369,477.312,16.369Zm-80.562,2.669H392.72v4.3h4.031v-.054a2.016,2.016,0,0,0,2.179-2.124A1.987,1.987,0,0,0,396.751,19.038Zm123.322-2.506c-1.471,0-2.4,1.307-2.4,3.377,0,2.015.926,3.432,2.4,3.432s2.4-1.471,2.4-3.432C522.469,18.058,521.6,16.532,520.072,16.532Zm-26.635-.381c-1.472-.054-2.289.981-2.452,2.723h4.794C495.669,17.077,494.689,16.151,493.437,16.151Zm-97.231-4.63h-3.541v3.6h3.6v.054a1.73,1.73,0,0,0,1.906-1.852A1.734,1.734,0,0,0,396.206,11.521Z" transform="translate(-387 -7)" fill-rule="evenodd"/>
      </g>
    </g>
  </g>
</svg>
