<svg id="Page-1" xmlns="http://www.w3.org/2000/svg" width="119.439" height="34.5" viewBox="0 0 119.439 34.5">
  <g id="Home-01">
    <g id="Logos">
      <g id="Combined-Shape" transform="translate(0 0)">
        <path id="Path_619" data-name="Path 619" d="M866.593,15.811a8.655,8.655,0,0,1,8.819,8.518,8.373,8.373,0,0,1-8.218,8.52,6.067,6.067,0,0,1-4.639-1.863h0V38.5H858.6V24.584C858.6,19.377,862.364,15.811,866.593,15.811ZM864.73,5.006a3.448,3.448,0,0,1,5.882,2.449,3.408,3.408,0,0,1-.124.859h0l10.9,8.489a8.659,8.659,0,0,1,4.12-1.814h0V11.014a3.057,3.057,0,0,1-1.764-2.758h0V8.165a3.06,3.06,0,0,1,3.06-3.06h.09a3.06,3.06,0,0,1,3.061,3.06h0v.091a3.061,3.061,0,0,1-1.765,2.758h0v3.974A8.708,8.708,0,1,1,881.573,30.5h0l-3.229,3.23a2.8,2.8,0,0,1-2.7,3.645,2.832,2.832,0,0,1,0-5.663,2.8,2.8,0,0,1,.815.133h0l3.265-3.265a8.693,8.693,0,0,1-.132-9.792h0l-10.734-8.352a3.406,3.406,0,0,1-1.7.462,3.448,3.448,0,0,1-2.429-5.89Zm-36.914,5.368v7.5a6.069,6.069,0,0,1,4.643-1.863,8.376,8.376,0,0,1,8.215,8.522,8.668,8.668,0,0,1-8.82,8.518c-4.229,0-7.993-3.567-7.993-8.773h0V10.374ZM810.535,15.9v9.765a3.446,3.446,0,0,0,6.891,0h0V15.9h3.934v9.765a7.387,7.387,0,0,1-14.775,0h0V15.9Zm91.518-3.954v4.576h3.628v3.468h-3.628v6.845c0,1.546.663,2.555,3,2.555.443,0,.949-.034,1.389-.064h0l-.976,3.6a8.247,8.247,0,0,1-1.58.126c-3.374,0-5.835-1.8-5.835-5.363h0V13.745Zm-52.334-1.709a8.145,8.145,0,0,1,6.053,2.953h0l-2.586,3.049a5.923,5.923,0,0,0-3.723-1.97c-1.451,0-2.774.634-2.774,2.637-.007,3.715,9.427,1.052,9.427,9.62,0,3.971-3.273,6.511-7.346,6.511a8.473,8.473,0,0,1-6.812-3.4h0l2.871-2.985C845.9,27.863,846.659,29,849,29a2.722,2.722,0,0,0,2.774-2.508c0-4.32-9.434-1.87-9.434-9.589C842.335,12.747,845.434,10.238,849.719,10.238Zm-58.557,0v9.55h8.773v-9.55H804.1v22.8h-4.165v-9.24h-8.772v9.24H787v-22.8ZM832.434,20.1a4.489,4.489,0,1,0,4.489,4.488A4.489,4.489,0,0,0,832.434,20.1Zm34.744-.306a4.489,4.489,0,1,0,4.488,4.489A4.488,4.488,0,0,0,867.178,19.791Zm19.675-.664a4.468,4.468,0,1,0,0,8.932h0a4.469,4.469,0,0,0,0-8.932Z" transform="translate(-787 -4)" fill-rule="evenodd"/>
      </g>
    </g>
  </g>
</svg>
