<svg id="Page-1" xmlns="http://www.w3.org/2000/svg" width="47.247" height="46" viewBox="0 0 47.247 46">
  <g id="Home-01" transform="translate(0)">
    <g id="Logos">
      <g id="Combined-Shape" transform="translate(0 0)">
        <path id="Path_620" data-name="Path 620" d="M330.939,29.184a8.541,8.541,0,0,1,3.217.638h0v3.12a5.289,5.289,0,0,0-2.93-.9,5.42,5.42,0,0,0-5.366,5.134,5.279,5.279,0,0,0,5.31,5.8,5.734,5.734,0,0,0,2.986-.842h0v3.206a9.5,9.5,0,0,1-3.42.658c-4.607,0-8.191-3.721-8.274-8.7A8.579,8.579,0,0,1,330.939,29.184Zm-35.716-.218,9.922,9.471V29.606h3.334V45.94l-9.92-9.662v9.064h-3.335Zm21.83.64a4.041,4.041,0,0,1,4.021,3.914,3.942,3.942,0,0,1-1.8,3.443,4.5,4.5,0,0,1,2.651,4.19,4.311,4.311,0,0,1-3.976,4.19H310.3V29.606Zm-.578,9.024h-2.886v4.062h2.843a2.088,2.088,0,0,0,1.882-2.074,1.994,1.994,0,0,0-1.839-1.988Zm-.555-6.373h-2.375v3.7h2.481a1.884,1.884,0,0,0,1.666-1.947,1.8,1.8,0,0,0-1.772-1.754Zm17.365-15.267a5.1,5.1,0,0,1,4.734,3.547,5.012,5.012,0,0,1-4.541,6.6H317.162l13.251-9.233A5.181,5.181,0,0,1,333.285,16.991Zm-42.05,3.359a5.017,5.017,0,0,1,7.748-2.443h0l13.254,9.233H296.162A5.153,5.153,0,0,1,291.236,20.35Zm5.307-12.68a4.978,4.978,0,0,1,8.132,2.155h0l6.843,15.64L297.4,15.805A5.111,5.111,0,0,1,296.543,7.669ZM329.25,6.392a5.05,5.05,0,0,1,2.743,9.317h0l-14.111,9.711,6.65-15.453C325.621,7.319,327.5,6.391,329.25,6.392ZM308.693.065c2.632-.29,5.934,1.719,5.358,6.071h0l-2.487,17.515L304.487,7A5.019,5.019,0,0,1,308.693.065ZM320.177,0c.131,0,.256.007.381.016a5.078,5.078,0,0,1,4.256,6.936h0l-7.029,16.7-2.25-15.069c-.19-2.292,1.243-2.345,1.77-2.775-.1-.336-.811-.336-.811-.336h-1.338A4.979,4.979,0,0,1,320.177,0Z" transform="translate(-291 0)" fill-rule="evenodd"/>
      </g>
    </g>
  </g>
</svg>
