<svg id="Page-1" xmlns="http://www.w3.org/2000/svg" width="149.5" height="34.5" viewBox="0 0 149.5 34.5">
  <g id="Home-01">
    <g id="Logos">
      <g id="Combined-Shape" transform="translate(0 0)">
        <path id="Path_621" data-name="Path 621" d="M18.368-26.518a.743.743,0,0,0,.733-.608l.012-.134a.739.739,0,0,0-.611-.729L18.368-28a.739.739,0,0,0-.741.74.742.742,0,0,0,.608.73Zm5.005.148.043-.122a.8.8,0,0,0-.444-.932l-.122-.044-.1-.021h0l-.1-.007a.8.8,0,0,0-.767.59.794.794,0,0,0,.441.932l.122.043A.8.8,0,0,0,23.374-26.369Zm-9.2.464.127-.024a.8.8,0,0,0,.59-.849l-.023-.128a.8.8,0,0,0-.639-.578l-.13-.011a.826.826,0,0,0-.209.03.8.8,0,0,0-.588.846l.024.128A.8.8,0,0,0,14.173-25.905ZM10.18-24.034l.137-.02a1.021,1.021,0,0,0,.807-1.073l-.02-.137a1.015,1.015,0,0,0-.84-.793l-.155-.012a.952.952,0,0,0-.215.022,1.02,1.02,0,0,0-.807,1.072l.02.138A1.018,1.018,0,0,0,10.18-24.034Zm17.412-.67.038-.133a1.015,1.015,0,0,0-.652-1.171l-.133-.037-.108-.017h0l-.108-.006a1.012,1.012,0,0,0-.994.8,1.022,1.022,0,0,0,.652,1.173l.133.038A1.023,1.023,0,0,0,27.592-24.7Zm-7.7,1.942.129-.015a.8.8,0,0,0,.64-.808l-.015-.129a.8.8,0,0,0-.642-.628l-.137-.012a1.22,1.22,0,0,0-.156.017.793.793,0,0,0-.641.807l.015.13A.8.8,0,0,0,19.9-22.762Zm-3.415-.121.112-.006a.623.623,0,0,0,.532-.593l-.006-.112a.621.621,0,0,0-.5-.521l-.112-.01a.509.509,0,0,0-.091.007.625.625,0,0,0-.532.593l.006.112A.624.624,0,0,0,16.48-22.884Zm6.752,1.115.14-.025a.967.967,0,0,0,.721-1.032l-.025-.14a.963.963,0,0,0-.793-.715l-.142-.01a.9.9,0,0,0-.239.028.964.964,0,0,0-.722,1.032l.025.141A.969.969,0,0,0,23.232-21.769Zm-16.5.579.155-.015a1.239,1.239,0,0,0,1.045-1.261l-.015-.155a1.233,1.233,0,0,0-1.058-1.031l-.161-.01a1.418,1.418,0,0,0-.2.017,1.233,1.233,0,0,0-1.041,1.257l.015.155A1.237,1.237,0,0,0,6.727-21.19Zm24.512-.89.033-.152a1.236,1.236,0,0,0-.875-1.38l-.151-.034-.1-.011h0l-.1,0a1.232,1.232,0,0,0-1.219,1.042,1.238,1.238,0,0,0,.876,1.382l.152.034A1.238,1.238,0,0,0,31.24-22.08Zm-17.861.06.112-.035a.58.58,0,0,0,.339-.648l-.036-.111a.575.575,0,0,0-.421-.339l-.111-.011a.572.572,0,0,0-.23.046.576.576,0,0,0-.339.648l.036.113A.581.581,0,0,0,13.379-22.02Zm12.907,2.114.147-.036a1.2,1.2,0,0,0,.825-1.36l-.036-.147a1.2,1.2,0,0,0-.976-.832l-.169-.012a1.234,1.234,0,0,0-.361.055,1.2,1.2,0,0,0-.827,1.359l.036.147A1.2,1.2,0,0,0,26.285-19.906Zm-15.634-.4.105-.068a.621.621,0,0,0,.172-.767l-.068-.106a.618.618,0,0,0-.378-.225l-.109-.01a.634.634,0,0,0-.389.133.623.623,0,0,0-.17.767l.068.106A.624.624,0,0,0,10.651-20.307Zm9.52.588.111-.1a.921.921,0,0,0,.061-1.191l-.1-.112a.914.914,0,0,0-.495-.238l-.135-.01a.927.927,0,0,0-.672.287.92.92,0,0,0-.06,1.19l.1.111A.919.919,0,0,0,20.171-19.719Zm-3.188-.058.1-.087a.729.729,0,0,0,.055-.928l-.087-.1a.725.725,0,0,0-.364-.184l-.133-.012a.737.737,0,0,0-.53.228.727.727,0,0,0-.056.928l.087.1A.729.729,0,0,0,16.983-19.778Zm6.209,1,.112-.1a1.038,1.038,0,0,0,.07-1.339l-.113-.125a1.043,1.043,0,0,0-.56-.272l-.153-.011a1.021,1.021,0,0,0-.75.326,1.033,1.033,0,0,0-.063,1.349l.1.114A1.041,1.041,0,0,0,23.191-18.782ZM4.056-17.464l.168-.008A1.542,1.542,0,0,0,5.605-19L5.6-19.166a1.538,1.538,0,0,0-1.365-1.37l-.165-.009a1.227,1.227,0,0,0-.165.007,1.536,1.536,0,0,0-1.379,1.525l.009.168A1.54,1.54,0,0,0,4.056-17.464Zm30.126-1.214.026-.166A1.538,1.538,0,0,0,33-20.511l-.166-.027-.082-.006h0l-.081,0a1.541,1.541,0,0,0-1.532,1.379A1.543,1.543,0,0,0,32.35-17.5l.166.026A1.539,1.539,0,0,0,34.182-18.678Zm-5.391,1.224.159-.048a1.328,1.328,0,0,0,.833-1.545l-.048-.16a1.327,1.327,0,0,0-1.065-.854l-.178-.012a1.3,1.3,0,0,0-.461.081,1.324,1.324,0,0,0-.834,1.544l.048.16A1.328,1.328,0,0,0,28.792-17.455Zm-14.786-1.4.09-.078a.585.585,0,0,0,.054-.738l-.078-.089a.6.6,0,0,0-.3-.149l-.108-.01a.586.586,0,0,0-.428.183.585.585,0,0,0-.054.738l.078.091A.592.592,0,0,0,14.006-18.851ZM8.357-17.728,8.48-17.8a.8.8,0,0,0,.263-.985l-.072-.123a.793.793,0,0,0-.527-.327l-.124-.01a.791.791,0,0,0-.459.146.8.8,0,0,0-.263.985l.073.125A.8.8,0,0,0,8.357-17.728Zm17.472.787.118-.109a1.2,1.2,0,0,0,.062-1.569l-.11-.119a1.194,1.194,0,0,0-.641-.311l-.174-.013a1.182,1.182,0,0,0-.867.376,1.182,1.182,0,0,0-.064,1.561l.111.119A1.191,1.191,0,0,0,25.828-16.942Zm-6.94-.793.048-.122a.808.808,0,0,0-.422-.958l-.123-.047-.116-.025h0l-.115-.008a.815.815,0,0,0-.774.581.807.807,0,0,0,.423.955l.123.048A.812.812,0,0,0,18.889-17.734ZM69.682-2.854a29.292,29.292,0,0,0,4.732-.305c.328-.041.439-.152.439-.459h0v-1.4a.438.438,0,0,0-.439-.435H68.871c-1.656,0-1.726-.052-1.726-1.884V-9.807h7.008a.44.44,0,0,0,.439-.437h0v-1.579a.442.442,0,0,0-.439-.437H67.144v-2.224c.008-1.616.139-1.66,1.726-1.66h5.543a.443.443,0,0,0,.439-.44h0v-1.4c0-.307-.109-.416-.439-.461a29.785,29.785,0,0,0-4.732-.305c-3.634,0-5.562-.024-5.562,4.486h0v6.924c0,4.283,1.74,4.476,5.029,4.484Zm44.217,0a29.407,29.407,0,0,0,4.734-.305c.324-.041.432-.152.432-.459h0v-1.4a.436.436,0,0,0-.432-.435h-5.547c-1.663,0-1.73-.052-1.73-1.884h0V-9.807h7.008a.435.435,0,0,0,.435-.437h0v-1.579a.436.436,0,0,0-.435-.437h-7.008v-2c0-1.832.067-1.88,1.73-1.88h5.547a.441.441,0,0,0,.432-.44h0v-1.4c0-.307-.107-.416-.432-.461a29.9,29.9,0,0,0-4.734-.305c-3.643,0-5.567-.024-5.567,4.486h0v6.924c0,4.283,1.737,4.476,5.034,4.484ZM51.032-3.026a.424.424,0,0,0,.419-.439h0V-8.858c.5.026,2.274.089,2.847.089h.482l3.156,5.3c.107.219.2.439.435.439h2.674a.243.243,0,0,0,.263-.259.291.291,0,0,0-.044-.178h0L57.827-9.319A4.208,4.208,0,0,0,60.783-13.6h0v-.2c0-3.742-3.115-4.947-6.486-4.947a45.123,45.123,0,0,0-5.189.283c-.441.067-.7.218-.7.659h0v14.34a.439.439,0,0,0,.435.439h2.189Zm74.336,0a.419.419,0,0,0,.413-.439h0V-8.858c.509.026,2.278.089,2.845.089h.489l3.156,5.3c.109.219.2.439.435.439h2.676a.238.238,0,0,0,.259-.259.29.29,0,0,0-.045-.178h0l-3.441-5.856a4.21,4.21,0,0,0,2.956-4.283h0v-.2c0-3.742-3.111-4.947-6.488-4.947a45.093,45.093,0,0,0-5.184.283c-.439.067-.7.218-.7.659h0v14.34a.44.44,0,0,0,.439.439h2.187Zm18.37.183c4.382,0,5.76-2.363,5.762-4.575,0-2.1-1.2-3.183-3.039-3.929-1.458-.587-2.734-1.084-3.706-1.466s-1.8-1.048-1.8-1.768c0-.985,1.215-1.551,2.839-1.551a47.26,47.26,0,0,1,4.847.394h.042a.371.371,0,0,0,.371-.392h0v-1.619a.438.438,0,0,0-.391-.413,21.324,21.324,0,0,0-4.742-.577c-4.069,0-6.01,1.751-6.01,4.159a3.922,3.922,0,0,0,2.58,3.827c1.915.787,5.834,1.7,5.834,3.337,0,1.27-.6,1.965-2.542,1.965a39.955,39.955,0,0,1-4.952-.394h-.044a.418.418,0,0,0-.415.416h0v1.575a.47.47,0,0,0,.415.437A23.816,23.816,0,0,0,143.738-2.843ZM21.281-17.4l.048-.128a.928.928,0,0,0-.5-1.11l-.129-.048-.131-.028h0l-.131-.009a.931.931,0,0,0-.889.668.921.921,0,0,0,.5,1.1l.13.049A.923.923,0,0,0,21.281-17.4ZM100.833-3.024a.445.445,0,0,0,.444-.439h0v-12.57h4.369a.4.4,0,0,0,.435-.39h0v-1.729a.42.42,0,0,0-.435-.416H93.856a.42.42,0,0,0-.435.416h0v1.729a.4.4,0,0,0,.435.39h4.373v12.57a.44.44,0,0,0,.439.439h2.165Zm-16.15.172c3.528,0,6.565-1.531,6.563-6.2h0v-9.1a.421.421,0,0,0-.441-.416H88.639a.421.421,0,0,0-.437.416h0v9.1c0,2.5-1.15,3.679-3.519,3.679s-3.515-1.183-3.515-3.679h0v-9.1a.419.419,0,0,0-.439-.416H78.566a.423.423,0,0,0-.441.416h0v9.1C78.125-4.383,81.162-2.852,84.683-2.852ZM16.549-17.337l.047-.121a.727.727,0,0,0-.368-.842l-.119-.048-.1-.021h0l-.1-.006a.723.723,0,0,0-.694.513.72.72,0,0,0,.37.844l.121.048A.718.718,0,0,0,16.549-17.337Zm-5.061.247.076-.065a.44.44,0,0,0,.048-.543l-.064-.077a.457.457,0,0,0-.2-.1l-.107-.013a.423.423,0,0,0-.315.135.436.436,0,0,0-.048.541l.065.077A.437.437,0,0,0,11.488-17.089Zm11.76.633.047-.123a.806.806,0,0,0-.423-.956l-.123-.048-.115-.025h0l-.113-.008a.816.816,0,0,0-.778.585.808.808,0,0,0,.426.954l.123.047A.811.811,0,0,0,23.248-16.456Zm7.38,1.984.158-.057a1.445,1.445,0,0,0,.812-1.739l-.058-.158a1.441,1.441,0,0,0-1.14-.86l-.184-.012a1.447,1.447,0,0,0-.57.118,1.44,1.44,0,0,0-.814,1.736l.058.159A1.445,1.445,0,0,0,30.628-14.473ZM14.39-16.294l.043-.106a.568.568,0,0,0-.278-.658l-.106-.043-.08-.017h0l-.079-.006a.562.562,0,0,0-.543.405.563.563,0,0,0,.277.659l.107.044A.569.569,0,0,0,14.39-16.294Zm21.623,1.53.018-.173A1.7,1.7,0,0,0,34.6-16.7l-.173-.018-.047,0h-.046a1.694,1.694,0,0,0-1.695,1.608,1.7,1.7,0,0,0,1.433,1.768l.173.018A1.7,1.7,0,0,0,36.013-14.764ZM2.5-13.327a1.7,1.7,0,0,0,1.608-1.612v-.174a1.694,1.694,0,0,0-1.519-1.6l-.178-.009a.766.766,0,0,0-.093,0A1.7,1.7,0,0,0,.709-15.11v.175a1.7,1.7,0,0,0,1.615,1.608Zm15.1-2.082.119-.048a.64.64,0,0,0,.3-.745l-.049-.12a.635.635,0,0,0-.447-.325l-.113-.01a.663.663,0,0,0-.3.08.637.637,0,0,0-.305.741l.048.118A.638.638,0,0,0,17.6-15.409Zm1.649-.105.106-.045a.562.562,0,0,0,.275-.659l-.044-.105a.554.554,0,0,0-.374-.283l-.118-.013a.54.54,0,0,0-.272.07.558.558,0,0,0-.271.658l.044.106A.555.555,0,0,0,19.244-15.514Zm8.353.876.112-.1a1.031,1.031,0,0,0,.06-1.352l-.1-.114a1.021,1.021,0,0,0-.554-.268l-.152-.011a1.036,1.036,0,0,0-.757.326,1.032,1.032,0,0,0-.06,1.351l.1.113A1.038,1.038,0,0,0,27.6-14.638Zm-20.839.016.138-.073A.967.967,0,0,0,7.264-15.9L7.2-16.029a.956.956,0,0,0-.678-.438l-.136-.009a.981.981,0,0,0-.517.15.964.964,0,0,0-.366,1.2L5.567-15A.967.967,0,0,0,6.758-14.622Zm9.294-.152.121-.052a.719.719,0,0,0,.342-.855l-.051-.119a.714.714,0,0,0-.508-.37l-.128-.011a.721.721,0,0,0-.344.087.72.72,0,0,0-.343.855l.052.119A.723.723,0,0,0,16.053-14.775ZM128.63-11.242c-.367,0-2.491-.044-2.845-.067h0v-4.745c.4-.041,2.387-.085,2.845-.085,2.195,0,3.467.7,3.467,2.341h0v.2C132.1-11.677,130.887-11.242,128.63-11.242Zm-74.334,0c-.378,0-2.5-.044-2.847-.067h0v-4.745c.391-.041,2.384-.085,2.847-.085,2.189,0,3.463.7,3.463,2.341h0v.2C57.758-11.677,56.547-11.242,54.3-11.242ZM20.832-15.105l.09-.039a.486.486,0,0,0,.242-.576l-.04-.092a.493.493,0,0,0-.332-.25l-.1-.011a.5.5,0,0,0-.23.057.507.507,0,0,0-.242.584l.038.092A.493.493,0,0,0,20.832-15.105Zm3.994.195.048-.121a.71.71,0,0,0-.366-.839l-.121-.047-.1-.022h0l-.1-.007a.729.729,0,0,0-.689.514.717.717,0,0,0,.365.845l.12.047A.721.721,0,0,0,24.826-14.911ZM9.859-14.45l.09-.077A.589.589,0,0,0,10-15.264l-.078-.09a.582.582,0,0,0-.294-.151l-.108-.01a.588.588,0,0,0-.428.181.582.582,0,0,0-.052.739l.078.09A.592.592,0,0,0,9.859-14.45Zm2.849-.217.042-.1a.453.453,0,0,0-.212-.526l-.1-.042-.063-.013h0l-.061,0a.456.456,0,0,0-.446.328.453.453,0,0,0,.214.524l.1.04A.46.46,0,0,0,12.707-14.667Zm1.97.83.119-.049a.634.634,0,0,0,.313-.743l-.05-.118a.641.641,0,0,0-.45-.327l-.113-.01a.6.6,0,0,0-.3.076.635.635,0,0,0-.306.759l.046.107A.634.634,0,0,0,14.677-13.837Zm7.5-.378.093-.034a.437.437,0,0,0,.209-.49l-.037-.091a.434.434,0,0,0-.285-.214l-.089-.01a.436.436,0,0,0-.2.054.427.427,0,0,0-.213.485l.036.091A.432.432,0,0,0,22.177-14.215Zm9.394,2.848.154-.065a1.323,1.323,0,0,0,.665-1.621l-.065-.154a1.328,1.328,0,0,0-1.031-.727l-.162-.01a1.328,1.328,0,0,0-.585.137,1.325,1.325,0,0,0-.665,1.622l.065.153A1.324,1.324,0,0,0,31.572-11.367Zm-5.784-1.582.043-.106a.561.561,0,0,0-.275-.657l-.106-.042-.081-.018h0l-.082-.006a.564.564,0,0,0-.541.4.564.564,0,0,0,.278.661l.105.042A.563.563,0,0,0,25.787-12.949Zm-2.626,0,.087-.033a.35.35,0,0,0,.178-.387l-.033-.089a.358.358,0,0,0-.222-.177l-.093-.012a.356.356,0,0,0-.167.039.366.366,0,0,0-.172.4l.035.088A.348.348,0,0,0,23.161-12.952Zm-9.452.425.1-.044a.565.565,0,0,0,.276-.661l-.044-.107a.573.573,0,0,0-.381-.282l-.119-.013a.573.573,0,0,0-.265.067.57.57,0,0,0-.276.661l.042.106A.574.574,0,0,0,13.709-12.526Zm14.838.688.111-.1a.916.916,0,0,0,.062-1.188l-.1-.111a.914.914,0,0,0-.5-.242l-.136-.01a.911.911,0,0,0-.67.289.917.917,0,0,0-.06,1.19l.1.111A.918.918,0,0,0,28.547-11.839ZM6-11.128l.148-.07a1.2,1.2,0,0,0,.53-1.49l-.071-.148a1.2,1.2,0,0,0-.892-.6l-.157-.01a1.179,1.179,0,0,0-.589.156,1.2,1.2,0,0,0-.53,1.488l.071.148A1.2,1.2,0,0,0,6-11.128Zm5.618-1.508.037-.084a.34.34,0,0,0-.149-.386l-.085-.038-.049-.01h0l-.047,0a.334.334,0,0,0-.324.243.346.346,0,0,0,.144.392l.084.038A.343.343,0,0,0,11.617-12.636ZM9.1-11.409l.1-.086a.73.73,0,0,0,.056-.928l-.086-.1a.732.732,0,0,0-.367-.186l-.133-.012a.725.725,0,0,0-.528.231.725.725,0,0,0-.056.924l.088.1A.727.727,0,0,0,9.1-11.409ZM34.888-8.9a1.851,1.851,0,0,0,1.841-1.66l.01-.189a1.843,1.843,0,0,0-1.658-1.838l-.189-.009a1.842,1.842,0,0,0-1.85,1.845A1.849,1.849,0,0,0,34.7-8.912ZM1.852-8.9a1.848,1.848,0,0,0,1.835-1.662l.01-.189a1.839,1.839,0,0,0-1.656-1.834L1.852-12.6A1.844,1.844,0,0,0,0-10.751,1.853,1.853,0,0,0,1.663-8.912Zm21.9-2.4.089-.034a.443.443,0,0,0,.215-.492l-.036-.089a.425.425,0,0,0-.285-.213l-.089-.009a.436.436,0,0,0-.2.052.42.42,0,0,0-.21.485l.038.091A.425.425,0,0,0,23.749-11.305Zm-10.55.319.106-.043a.5.5,0,0,0,.242-.566l-.042-.1a.493.493,0,0,0-.331-.248l-.1-.011a.451.451,0,0,0-.239.061.494.494,0,0,0-.239.561l.041.105A.5.5,0,0,0,13.2-10.986Zm12.913.253.042-.1a.456.456,0,0,0-.213-.525l-.1-.042-.064-.013h0l-.064-.005a.454.454,0,0,0-.441.329.452.452,0,0,0,.212.526l.1.04A.456.456,0,0,0,26.112-10.733Zm-14.683.416.042-.1a.457.457,0,0,0-.212-.527l-.1-.042L11.1-11h0L11.034-11a.471.471,0,0,0-.444.329.455.455,0,0,0,.215.525l.1.041A.455.455,0,0,0,11.429-10.316Zm12.382.749.106-.042a.5.5,0,0,0,.239-.565l-.043-.105a.486.486,0,0,0-.329-.248l-.1-.011a.494.494,0,0,0-.235.059.5.5,0,0,0-.244.567l.041.107A.506.506,0,0,0,23.811-9.567Zm7.811,1.432.147-.071a1.2,1.2,0,0,0,.53-1.488l-.071-.148a1.2,1.2,0,0,0-.892-.6l-.157-.01a1.219,1.219,0,0,0-.589.155,1.2,1.2,0,0,0-.53,1.49l.07.148A1.2,1.2,0,0,0,31.622-8.136ZM28.51-8.93l.1-.087a.72.72,0,0,0,.057-.925l-.088-.1a.714.714,0,0,0-.363-.184l-.134-.012a.742.742,0,0,0-.532.228.724.724,0,0,0-.053.926l.087.1A.722.722,0,0,0,28.51-8.93ZM13.217-9.384l.089-.038a.418.418,0,0,0,.212-.482l-.038-.09a.435.435,0,0,0-.286-.212l-.09-.01a.434.434,0,0,0-.2.05.429.429,0,0,0-.205.487l.037.091A.415.415,0,0,0,13.217-9.384ZM6.041-7.631,6.195-7.7A1.324,1.324,0,0,0,6.86-9.317L6.8-9.47A1.319,1.319,0,0,0,5.771-10.2l-.161-.01a1.327,1.327,0,0,0-.594.139A1.322,1.322,0,0,0,4.35-8.449l.065.154A1.33,1.33,0,0,0,6.041-7.631ZM9.316-8.2l.111-.1a.924.924,0,0,0,.062-1.192l-.1-.113a.919.919,0,0,0-.495-.24l-.135-.01a.928.928,0,0,0-.674.291.923.923,0,0,0-.06,1.19l.1.111A.918.918,0,0,0,9.316-8.2ZM25.7-8.5l.037-.085a.337.337,0,0,0-.146-.386l-.085-.038-.046-.01h0l-.046,0a.348.348,0,0,0-.33.246.349.349,0,0,0,.147.387l.082.037A.337.337,0,0,0,25.7-8.5Zm-2.346.6.1-.044a.566.566,0,0,0,.278-.662L23.7-8.709a.566.566,0,0,0-.379-.285L23.2-9.007a.562.562,0,0,0-.269.068.57.57,0,0,0-.275.664l.043.106A.569.569,0,0,0,23.359-7.9Zm-11.4-.123L12-8.127a.558.558,0,0,0-.276-.655l-.106-.041-.083-.018h0l-.083-.006a.551.551,0,0,0-.533.4.566.566,0,0,0,.274.659l.107.043A.561.561,0,0,0,11.956-8.02Zm1.786.154.09-.033a.36.36,0,0,0,.175-.394l-.034-.089a.362.362,0,0,0-.222-.173l-.093-.013a.369.369,0,0,0-.163.043.349.349,0,0,0-.176.392l.034.091A.356.356,0,0,0,13.743-7.866ZM34.422-4.782a1.7,1.7,0,0,0,1.608-1.609v-.175a1.7,1.7,0,0,0-1.521-1.6l-.178-.009c-.031,0-.061,0-.091,0a1.7,1.7,0,0,0-1.606,1.61v.174a1.694,1.694,0,0,0,1.613,1.607ZM4.09-6.215l.018-.174A1.7,1.7,0,0,0,2.673-8.155L2.5-8.173l-.044,0H2.411a1.7,1.7,0,0,0-1.7,1.608A1.7,1.7,0,0,0,2.146-4.8l.172.018A1.7,1.7,0,0,0,4.09-6.215Zm18.342-.243.12-.05a.629.629,0,0,0,.305-.74l-.05-.118a.642.642,0,0,0-.449-.325l-.112-.01a.631.631,0,0,0-.3.078.634.634,0,0,0-.307.743l.05.118A.632.632,0,0,0,22.432-6.457Zm-7.645-.02.091-.038a.419.419,0,0,0,.208-.479l-.036-.091a.416.416,0,0,0-.283-.209L14.677-7.3a.415.415,0,0,0-.2.048.421.421,0,0,0-.208.482l.036.09A.415.415,0,0,0,14.787-6.477Zm12.775.384.09-.079a.59.59,0,0,0,.053-.739L27.628-7a.6.6,0,0,0-.3-.148l-.108-.011a.586.586,0,0,0-.43.185.587.587,0,0,0-.054.742l.078.091A.587.587,0,0,0,27.562-6.093Zm-17.136.854.112-.1a1.035,1.035,0,0,0,.061-1.35L10.5-6.8a1.03,1.03,0,0,0-.555-.272L9.79-7.086a1.037,1.037,0,0,0-.756.326A1.033,1.033,0,0,0,8.96-5.423l.113.126A1.043,1.043,0,0,0,10.426-5.238Zm-3.485.976L7.1-4.319a1.443,1.443,0,0,0,.81-1.739l-.058-.158a1.438,1.438,0,0,0-1.14-.858l-.184-.012a1.38,1.38,0,0,0-.57.117,1.442,1.442,0,0,0-.814,1.738l.058.159A1.445,1.445,0,0,0,6.941-4.262ZM24.834-6.38l.041-.1a.466.466,0,0,0-.214-.528l-.1-.042L24.5-7.061h0l-.064-.005a.464.464,0,0,0-.441.329.463.463,0,0,0,.212.528l.1.04A.461.461,0,0,0,24.834-6.38ZM13.2-5.945l.048-.12a.727.727,0,0,0-.37-.848l-.12-.048-.1-.022h0l-.1-.007a.72.72,0,0,0-.687.518.717.717,0,0,0,.364.844l.121.048A.719.719,0,0,0,13.2-5.945ZM30.736-5.1l.139-.073a.963.963,0,0,0,.366-1.2l-.068-.127a.962.962,0,0,0-.681-.438l-.136-.009a.931.931,0,0,0-.513.148.966.966,0,0,0-.373,1.192l.073.139A.966.966,0,0,0,30.736-5.1Zm-9.6-.259.12-.05a.725.725,0,0,0,.342-.856l-.051-.117a.729.729,0,0,0-.51-.371l-.128-.012a.665.665,0,0,0-.344.089.716.716,0,0,0-.342.855l.053.12A.729.729,0,0,0,21.141-5.361ZM16.2-5.455l.093-.038a.5.5,0,0,0,.239-.584l-.039-.091a.5.5,0,0,0-.333-.246l-.1-.011a.442.442,0,0,0-.232.059.488.488,0,0,0-.24.578l.04.092A.492.492,0,0,0,16.2-5.455Zm3.333.569.106-.047a.63.63,0,0,0,.306-.74L19.9-5.791a.638.638,0,0,0-.449-.323l-.112-.01a.613.613,0,0,0-.3.074.625.625,0,0,0-.3.742l.05.12A.625.625,0,0,0,19.533-4.885ZM17.825-4.91l.106-.044a.56.56,0,0,0,.274-.661l-.045-.107A.554.554,0,0,0,17.781-6l-.121-.013a.588.588,0,0,0-.27.065.569.569,0,0,0-.271.661l.043.1A.57.57,0,0,0,17.825-4.91Zm5.529.237.042-.1a.562.562,0,0,0-.273-.661l-.106-.043L22.935-5.5h0l-.081-.006a.572.572,0,0,0-.543.405.571.571,0,0,0,.281.658L22.7-4.4A.562.562,0,0,0,23.354-4.674Zm-8.4.331.048-.122a.812.812,0,0,0-.427-.956l-.123-.047-.115-.025h0L14.227-5.5a.806.806,0,0,0-.774.583.8.8,0,0,0,.423.952L14-3.918A.815.815,0,0,0,14.957-4.342ZM12.411-2.7l.118-.111a1.189,1.189,0,0,0,.06-1.565l-.11-.12a1.193,1.193,0,0,0-.642-.311l-.175-.013a1.173,1.173,0,0,0-.867.374,1.191,1.191,0,0,0-.059,1.565l.11.12A1.187,1.187,0,0,0,12.411-2.7Zm4.734-.616.047-.128a.928.928,0,0,0-.5-1.107l-.13-.048-.131-.028h0L16.3-4.64a.926.926,0,0,0-.889.666.929.929,0,0,0,.5,1.106l.13.049A.934.934,0,0,0,17.145-3.32Zm4.335-.2.047-.121a.715.715,0,0,0-.366-.841l-.121-.047-.1-.024h0l-.1-.007a.718.718,0,0,0-.689.514.722.722,0,0,0,.367.845l.12.047A.718.718,0,0,0,21.481-3.515Zm4.256-.167.077-.066a.431.431,0,0,0,.047-.538l-.066-.076a.432.432,0,0,0-.192-.107l-.108-.014h0a.427.427,0,0,0-.317.139.44.44,0,0,0-.046.541l.064.077A.44.44,0,0,0,25.737-3.682Zm-6.427.619.046-.122a.81.81,0,0,0-.423-.957l-.123-.047-.116-.025h0l-.114-.008a.808.808,0,0,0-.774.581.807.807,0,0,0,.426.95l.122.047A.8.8,0,0,0,19.309-3.063Zm-10.76,1.6.159-.048a1.323,1.323,0,0,0,.834-1.544l-.048-.161a1.328,1.328,0,0,0-1.084-.854l-.16-.01A1.343,1.343,0,0,0,7.788-4a1.328,1.328,0,0,0-.832,1.544L7-2.295A1.323,1.323,0,0,0,8.549-1.464ZM5.569-2.169l.026-.167A1.542,1.542,0,0,0,4.389-4l-.166-.027L4.14-4.036h0l-.081,0A1.542,1.542,0,0,0,2.532-2.658a1.536,1.536,0,0,0,1.2,1.665L3.9-.966A1.536,1.536,0,0,0,5.569-2.169ZM32.67-.956l.168-.009a1.536,1.536,0,0,0,1.379-1.523l-.009-.168a1.538,1.538,0,0,0-1.365-1.37l-.165-.009a.967.967,0,0,0-.163.007A1.544,1.544,0,0,0,31.135-2.5l.009.168A1.539,1.539,0,0,0,32.67-.956ZM29.056-2.326,29.18-2.4a.8.8,0,0,0,.26-.987l-.073-.125a.8.8,0,0,0-.528-.325l-.124-.01a.78.78,0,0,0-.457.146A.8.8,0,0,0,28-2.713l.072.124A.8.8,0,0,0,29.056-2.326ZM14.833-1.092l.112-.1a1.037,1.037,0,0,0,.071-1.339L14.9-2.659a1.028,1.028,0,0,0-.557-.27l-.152-.011a1.034,1.034,0,0,0-.757.328,1.031,1.031,0,0,0-.067,1.336l.114.126A1.035,1.035,0,0,0,14.833-1.092Zm8.579-.6.09-.078a.582.582,0,0,0,.054-.737l-.078-.09a.585.585,0,0,0-.3-.151l-.108-.01a.592.592,0,0,0-.426.185.586.586,0,0,0-.055.74l.078.089A.587.587,0,0,0,23.412-1.693ZM17.689-.32l.11-.1a.92.92,0,0,0,.065-1.19l-.1-.111a.911.911,0,0,0-.5-.242l-.136-.01a.935.935,0,0,0-.674.289A.918.918,0,0,0,16.4-.495l.1.11A.918.918,0,0,0,17.689-.32Zm2.933-.24.1-.086a.723.723,0,0,0,.057-.926l-.087-.1a.728.728,0,0,0-.364-.184l-.132-.012a.727.727,0,0,0-.532.228.726.726,0,0,0-.055.925l.087.1A.727.727,0,0,0,20.623-.56ZM10.878.771l.147-.036a1.2,1.2,0,0,0,.829-1.356l-.036-.147a1.207,1.207,0,0,0-.981-.834l-.169-.012a1.2,1.2,0,0,0-.359.056A1.2,1.2,0,0,0,9.485-.2l.036.147A1.194,1.194,0,0,0,10.878.771ZM26.65-.084l.106-.067a.621.621,0,0,0,.17-.768l-.068-.107a.613.613,0,0,0-.378-.226l-.109-.01a.635.635,0,0,0-.387.135.624.624,0,0,0-.17.768l.068.106A.621.621,0,0,0,26.65-.084ZM7.878,1.269l.034-.153A1.234,1.234,0,0,0,7.034-.262L6.882-.3l-.1-.012h0l-.1,0a1.235,1.235,0,0,0-.344,2.42l.152.034A1.234,1.234,0,0,0,7.878,1.269Zm22.215.891.155-.015A1.233,1.233,0,0,0,31.288.887L31.273.731A1.237,1.237,0,0,0,30.213-.3l-.161-.011A.975.975,0,0,0,29.86-.3,1.235,1.235,0,0,0,28.817.963l.015.155A1.235,1.235,0,0,0,30.092,2.16ZM13.7,2.189l.141-.025a.965.965,0,0,0,.723-1.03L14.544.992a.963.963,0,0,0-.793-.715L13.609.267a.9.9,0,0,0-.241.03.963.963,0,0,0-.72,1.031l.025.141A.96.96,0,0,0,13.7,2.189ZM23.6,1.653l.112-.035a.58.58,0,0,0,.339-.65L24.011.855a.581.581,0,0,0-.423-.339L23.478.505a.612.612,0,0,0-.23.05.576.576,0,0,0-.338.647l.036.111A.579.579,0,0,0,23.6,1.653Zm-6.7,1.2.129-.015a.8.8,0,0,0,.639-.811l-.015-.13a.8.8,0,0,0-.644-.627l-.137-.012a.774.774,0,0,0-.158.017.8.8,0,0,0-.639.808l.015.128A.8.8,0,0,0,16.9,2.853Zm3.317-.227.112-.006a.621.621,0,0,0,.533-.593l-.007-.112a.622.622,0,0,0-.506-.523l-.113-.01a.492.492,0,0,0-.089.007.623.623,0,0,0-.531.595l.006.112A.621.621,0,0,0,20.218,2.625Zm6.49,1.944.138-.02a1.019,1.019,0,0,0,.805-1.074l-.02-.138a1.022,1.022,0,0,0-.843-.795l-.155-.012a1.069,1.069,0,0,0-.213.022,1.018,1.018,0,0,0-.805,1.073l.02.137A1.02,1.02,0,0,0,26.707,4.569ZM11.067,3.9l.038-.134a1.023,1.023,0,0,0-.652-1.173l-.133-.038-.106-.017h0l-.1-.006a1.021,1.021,0,0,0-.346,1.981l.133.038A1.021,1.021,0,0,0,11.067,3.9Zm3.755,1.627.044-.122a.8.8,0,0,0-.444-.932L14.3,4.425,14.2,4.4h0l-.1-.007a.8.8,0,0,0-.327,1.523l.122.043A.8.8,0,0,0,14.822,5.523Zm7.9.466.127-.024a.8.8,0,0,0,.59-.847l-.024-.128a.8.8,0,0,0-.641-.58L22.645,4.4a.731.731,0,0,0-.206.028.8.8,0,0,0-.588.849l.023.128A.8.8,0,0,0,22.723,5.989ZM18.368,6.5a.742.742,0,0,0,.733-.608l.012-.134a.742.742,0,0,0-.611-.728l-.134-.012a.741.741,0,0,0-.133,1.471Z" transform="translate(0 28)" fill-rule="evenodd"/>
      </g>
    </g>
  </g>
</svg>
