<svg id="Page-1" xmlns="http://www.w3.org/2000/svg" width="107.813" height="25.875" viewBox="0 0 107.813 25.875">
  <g id="Home-01">
    <g id="Logos">
      <g id="Combined-Shape" transform="translate(0 0)">
        <path id="Path_622" data-name="Path 622" d="M205.979,24.023A34.2,34.2,0,0,0,220.014,26.9,36.415,36.415,0,0,0,234.3,24.187l-.029,5.438a31.722,31.722,0,0,1-14.294,3.249,30.618,30.618,0,0,1-14.036-3.415ZM253.4,13.306c7.816.044,7.734,3.282,7.715,6.425l-.04,6.7a6.6,6.6,0,0,0,.736,3.651l-6.367-.037a4.362,4.362,0,0,1-.21-1.54h-.065a6.647,6.647,0,0,1-5.271,1.918c-3.152-.02-5.759-1.544-5.738-4.969.032-5.156,6.078-4.931,9.265-5.51.851-.154,1.7-.4,1.709-1.436.009-1.1-1.028-1.517-2.04-1.522-1.922-.01-2.3.961-2.339,1.652l-5.8-.032C245.172,14.011,249.525,13.281,253.4,13.306ZM186.168,7.187l6.237.035-.045,7.923h.062a5.344,5.344,0,0,1,4.488-2.176c5.481.032,6.936,4.693,6.913,8.528-.024,4.086-2.289,8.63-6.92,8.606-3.056-.019-3.995-1.188-4.777-2.23h-.062l-.012,1.794-6.019-.037Zm51.462.308,6.24.034-.134,22.446-6.237-.037Zm-60.059,5.361c7.814.046,7.732,3.284,7.714,6.427l-.037,6.7a6.589,6.589,0,0,0,.733,3.65l-6.364-.038a4.293,4.293,0,0,1-.211-1.54h-.065a6.649,6.649,0,0,1-5.274,1.917c-3.151-.019-5.756-1.543-5.737-4.968.03-5.156,6.081-4.932,9.265-5.51.852-.154,1.7-.4,1.711-1.436.007-1.1-1.029-1.517-2.038-1.522-1.922-.01-2.309.961-2.342,1.653l-5.8-.033C169.342,13.564,173.694,12.835,177.572,12.857ZM154.032,7l19.538.113-.033,5.754-6.3-.038-.095,16.693-6.933-.041.1-16.692-6.3-.037ZM255.111,22.715a10.73,10.73,0,0,1-2.461.77c-1.391.308-2.115.65-2.122,1.749a1.794,1.794,0,0,0,1.944,1.52,2.474,2.474,0,0,0,2.631-2.532Zm-75.83-.448a10.69,10.69,0,0,1-2.462.772c-1.389.307-2.116.647-2.122,1.747a1.8,1.8,0,0,0,1.945,1.522,2.476,2.476,0,0,0,2.631-2.532Zm15.584-4.781c-2.237-.013-2.751,2.091-2.764,4.007-.01,1.949.482,4.059,2.717,4.072s2.756-2.09,2.767-4.04C197.6,19.607,197.1,17.5,194.865,17.485ZM212.605,7c3.87.021,6.393,1.631,7.725,3.951,1.356-2.3,3.9-3.875,7.76-3.852,6.144.037,8.9,4.076,8.869,8.6s-2.825,8.565-8.97,8.531c-3.868-.023-6.391-1.646-7.722-3.974-1.358,2.307-3.9,3.9-7.762,3.873-6.144-.035-8.9-4.107-8.867-8.633S206.46,6.965,212.605,7Zm15.457,4.626c-2.363-.014-2.691,2.278-2.7,4.008s.289,4.056,2.654,4.07,2.691-2.311,2.7-4.039S230.426,11.638,228.063,11.627Zm-15.483-.1c-2.365-.014-2.692,2.279-2.7,4.007s.29,4.058,2.655,4.071,2.692-2.31,2.7-4.04S214.943,11.54,212.58,11.527Z" transform="translate(-154 -7)" fill-rule="evenodd"/>
      </g>
    </g>
  </g>
</svg>
