<svg id="Page-1" xmlns="http://www.w3.org/2000/svg" width="70.688" height="28.75" viewBox="0 0 70.688 28.75">
  <g id="Home-01">
    <g id="Logos">
      <g id="path236" transform="translate(0 0)">
        <path id="Path_623" data-name="Path 623" d="M539.96,6a.973.973,0,0,0,0,1.945l7.629.013c.026.013,3.562-.341,3.538,2.842V31.466a3.666,3.666,0,0,0,3.486,3.284h.4a3.661,3.661,0,0,0,3.461-3.284V10.547c.1-2.931,3.486-2.6,3.512-2.615l7.629-.013a.96.96,0,1,0,0-1.92Zm25,4.9a4.61,4.61,0,0,0-2.084.535,3.689,3.689,0,0,0-1.718,3.309V33.259a1.44,1.44,0,1,0,2.879,0V24.821c0-2.021,2.021-2.678,2.931-1.137.884,1.541,5.306,9.853,5.306,9.853.428.657.758.96,1.035,1.036.026,0,.026.025.05.025.532.253,1.39.1,2.047-1.061l4.193-8.287.707-1.415c.3-.455.556-1.011,1.44-1.011,1.011,0,1.314.632,1.314,1.768v6.8a3.061,3.061,0,0,0,3.032,3.284h.733A3.064,3.064,0,0,0,589.6,31.39V14.716a3.118,3.118,0,0,0-3.082-3.032h-.986a2.971,2.971,0,0,0-2.552,1.415,3.058,3.058,0,0,0-.4.631l-3.158,6.341c-.631,1.238-1.718,3.335-2.552,4.9-1.035,1.945-2.2.3-2.626-.354-.253-.4-1.087-1.869-1.517-2.627l-4.8-9.272A3.192,3.192,0,0,0,564.958,10.9Zm26.565,1.445a.953.953,0,0,0,.884.985h5.81a1.136,1.136,0,0,1,.909,1.087v.025l-.024.278-6.038,13.112c-.229.48-.53,1.061-.759,1.541-.428.859-1.591,3.057-.555,4.446.581.758,2.552.682,4.193.708H608.8a.921.921,0,0,0,.884-.985.977.977,0,0,0-.884-1.061h-7.2c-1.567,0-1.844-.683-2.047-1.163a5.561,5.561,0,0,1,.707-2.956c.506-1.086,5.356-11.671,5.356-11.671.328-.606,1.591-2.981,2-3.764a.615.615,0,0,0,.1-.227c0-.025.024-.025.024-.05a1.242,1.242,0,0,0,.052-.3.953.953,0,0,0-.884-.985H592.154C591.9,11.356,591.523,11.785,591.523,12.341Z" transform="translate(-539 -6)" fill-rule="evenodd"/>
      </g>
    </g>
  </g>
</svg>
