<svg xmlns="http://www.w3.org/2000/svg" width="96.843" height="35" viewBox="0 0 96.843 35">
  <g id="Home" transform="translate(0.243 0.5)">
    <g id="logo-compact-copy">
      <path id="Path" d="M32.817,11.776A1.894,1.894,0,0,0,34.3,11.2a2.368,2.368,0,0,0,.476-1.665V2.4h3.17V9.535a4.8,4.8,0,0,1-1.366,3.651,5.3,5.3,0,0,1-3.759,1.281,5.289,5.289,0,0,1-3.759-1.281A4.794,4.794,0,0,1,27.6,9.535V2.4h3.17V9.535a2.353,2.353,0,0,0,.526,1.64A1.883,1.883,0,0,0,32.817,11.776Z" transform="translate(12.075 1.05)" fill-rule="evenodd"/>
      <path id="Path-2" data-name="Path" d="M40.11,14.473a8.715,8.715,0,0,1-2.884-.491,7.188,7.188,0,0,1-2.426-1.4l1.644-1.941a5.69,5.69,0,0,0,1.644.97,5.565,5.565,0,0,0,2.022.353,2.338,2.338,0,0,0,1.159-.239.783.783,0,0,0,.418-.718.841.841,0,0,0-.5-.743,7.508,7.508,0,0,0-1.752-.655l-.768-.189a5.523,5.523,0,0,1-2.56-1.26,2.856,2.856,0,0,1-.876-2.155,3.194,3.194,0,0,1,.647-1.89A4.016,4.016,0,0,1,37.6,2.855,6.635,6.635,0,0,1,40.15,2.4a7.692,7.692,0,0,1,2.7.491,7.967,7.967,0,0,1,2.3,1.3l-1.7,2a6.912,6.912,0,0,0-1.55-.92,4.274,4.274,0,0,0-1.765-.391A2.254,2.254,0,0,0,39,5.111a.748.748,0,0,0-.431.718.87.87,0,0,0,.418.706,4.416,4.416,0,0,0,1.455.554l.93.239A5.864,5.864,0,0,1,44.22,8.74a2.938,2.938,0,0,1,.836,2.079,3.186,3.186,0,0,1-.62,1.941A4.018,4.018,0,0,1,42.7,14.02a6.766,6.766,0,0,1-2.587.454Z" transform="translate(15.225 1.05)" fill-rule="evenodd"/>
      <path id="Shape" d="M50.9,14.41l-.737-2.193H45.846l-.724,2.258H42L46.233,2.4H49.9l4.171,12.01Zm-4.321-4.7h2.735l-1.3-4.23Z" transform="translate(18.375 1.05)" fill-rule="evenodd"/>
      <path id="Path-3" data-name="Path" d="M31.158,25.275V15.822H27.6V13.2H37.95v2.622H34.431v9.453Z" transform="translate(12.075 5.775)" fill-rule="evenodd"/>
      <path id="Shape-2" data-name="Shape" d="M40.806,25.273a6.143,6.143,0,0,1-3.1-.769,5.643,5.643,0,0,1-2.119-2.142,6.16,6.16,0,0,1-.79-3.125,6.519,6.519,0,0,1,.426-2.419A5.647,5.647,0,0,1,36.481,14.9a5.778,5.778,0,0,1,1.906-1.26,6.715,6.715,0,0,1,4.8,0,5.79,5.79,0,0,1,1.906,1.26,5.634,5.634,0,0,1,1.254,1.915,6.489,6.489,0,0,1,.527,2.419,6.16,6.16,0,0,1-.777,3.125,5.644,5.644,0,0,1-2.144,2.129,6.145,6.145,0,0,1-3.147.781Zm0-2.633a2.5,2.5,0,0,0,1.454-.428,2.9,2.9,0,0,0,.978-1.2,4.127,4.127,0,0,0,.364-1.777,4.189,4.189,0,0,0-.364-1.776,2.96,2.96,0,0,0-.978-1.26,2.647,2.647,0,0,0-2.921,0,2.96,2.96,0,0,0-.978,1.26A4.188,4.188,0,0,0,38,19.238a4.124,4.124,0,0,0,.364,1.777,2.9,2.9,0,0,0,.978,1.2,2.5,2.5,0,0,0,1.467.416Z" transform="translate(15.225 5.775)" fill-rule="evenodd"/>
      <path id="Shape-3" data-name="Shape" d="M44.4,25.275V13.2h4.537a5.834,5.834,0,0,1,3.02.77A5.494,5.494,0,0,1,54.008,16.1a6.98,6.98,0,0,1,0,6.265,5.494,5.494,0,0,1-2.051,2.128,5.834,5.834,0,0,1-3.02.77Zm3.095-2.611h1.442a2.329,2.329,0,0,0,1.951-.94,4.053,4.053,0,0,0,.721-2.48,4.054,4.054,0,0,0-.721-2.48,2.329,2.329,0,0,0-1.951-.94H47.495Z" transform="translate(19.425 5.775)" fill-rule="evenodd"/>
      <path id="Shape-4" data-name="Shape" d="M60.457,25.275l-.72-2.258H55.426l-.72,2.258H51.6L55.811,13.2h3.652l4.211,12.075Zm-4.236-4.7h2.745l-1.354-4.23Z" transform="translate(22.575 5.775)" fill-rule="evenodd"/>
      <path id="Path-4" data-name="Path" d="M66.537,20.928v4.347h-3.4V20.928L58.8,13.2h3.782l2.262,4.856,2.248-4.791h3.782Z" transform="translate(25.725 5.775)" fill-rule="evenodd"/>
      <circle id="Oval" cx="17.5" cy="17.5" r="17.5" transform="translate(-0.243 -0.5)"/>
    </g>
  </g>
</svg>
