<svg xmlns="http://www.w3.org/2000/svg" width="42.777" height="32.953" viewBox="0 0 42.777 32.953">
  <g id="gmail" transform="translate(0 -58.794)" opacity="0.55">
    <g id="Group_567" data-name="Group 567" transform="translate(0 58.794)">
      <path id="Path_601" data-name="Path 601" d="M40.065,58.794H2.712A2.716,2.716,0,0,0,0,61.506V89.034a2.715,2.715,0,0,0,2.712,2.712H40.065a2.715,2.715,0,0,0,2.712-2.712V61.506A2.715,2.715,0,0,0,40.065,58.794Zm-3.481,1.535L21.389,71.4,6.194,60.329ZM4.81,90.212h-2.1a1.179,1.179,0,0,1-1.177-1.177V65.178L4.81,67.565Zm31.622,0H6.345V68.684L20.937,79.319a.767.767,0,0,0,.9,0L36.432,68.683Zm4.81-1.177a1.179,1.179,0,0,1-1.177,1.177h-2.1V67.565l3.275-2.387Zm0-25.756L21.389,77.749,1.535,63.278V61.506a1.179,1.179,0,0,1,1.177-1.177h.875L20.937,72.974a.767.767,0,0,0,.9,0L39.19,60.329h.875a1.179,1.179,0,0,1,1.177,1.177v1.772Z" transform="translate(0 -58.794)" fill="#fff"/>
    </g>
  </g>
</svg>
