<svg xmlns="http://www.w3.org/2000/svg" width="42.422" height="39.673" viewBox="0 0 42.422 39.673">
  <g id="Group_586" data-name="Group 586" transform="translate(-334.5 -646.25)">
    <path id="Path_604" data-name="Path 604" d="M75.5,81.25a5,5,0,1,0-5-5A5.006,5.006,0,0,0,75.5,81.25Zm0-8.1a3.1,3.1,0,1,1-3.1,3.1A3.108,3.108,0,0,1,75.5,73.146Zm0,0" transform="translate(264 575)" fill="#fff" opacity="0.55"/>
    <path id="Path_605" data-name="Path 605" d="M210.343,181.75a10.589,10.589,0,0,0-6.581,2.314v-.682a1.088,1.088,0,0,0-1.088-1.088h-7.587A1.088,1.088,0,0,0,194,183.382v25.453a1.088,1.088,0,0,0,1.088,1.088h7.995a1.088,1.088,0,0,0,1.088-1.088V194.143a3.29,3.29,0,1,1,6.581,0v14.692a1.088,1.088,0,0,0,1.088,1.088h7.995a1.088,1.088,0,0,0,1.088-1.088V192.328A10.59,10.59,0,0,0,210.343,181.75Zm8.4,26h-5.819v-13.6a5.466,5.466,0,0,0-10.932,0v13.6h-5.819V184.469h5.412v2.286a1.087,1.087,0,0,0,1.966.641,8.395,8.395,0,0,1,15.193,4.932Zm0,0" transform="translate(156 476)" fill="#fff" opacity="0.55"/>
    <path id="Path_606" data-name="Path 606" d="M77.57,186.75a1.07,1.07,0,0,0-1.07,1.07v25.033a1.07,1.07,0,0,0,1.07,1.07h7.863a1.07,1.07,0,0,0,1.07-1.07V187.82a1.07,1.07,0,0,0-1.07-1.07Zm6.793,25.033H78.64V188.89h5.723Zm0,0" transform="translate(258 472)" fill="#fff" opacity="0.55"/>
  </g>
</svg>
